<?xml version="1.0" encoding="UTF-8" standalone="no"?>
<!DOCTYPE svg PUBLIC "-//W3C//DTD SVG 20010904//EN"
              "http://www.w3.org/TR/2001/REC-SVG-20010904/DTD/svg10.dtd">
              
<svg xmlns="http://www.w3.org/2000/svg"
     width="50" height="40">
  <path fill="#00C65E" d="M0 8.762L43.44 31.68c1.14.596 1.347 2.137.406 3.012h-.022c-1.365 1.235-2.89 2.28-4.536 3.106C25.25 44.845 8.84 34.069 9.75 18.402l5.809 4.007c1.738 9.146 11.411 14.423 20.054 10.941L0 8.762zm17.563 6.392l29.176 11.52c.846.332 1.303 1.25 1.056 2.124v.037c-.313 1.09-1.558 1.61-2.554 1.065L17.563 15.154zM28.306.065c5.502-.472 12.377 1.596 16.474 6.872 3.45 4.453 4.162 9.894 3.919 15.513v-.015c-.097 1.192-1.32 1.95-2.432 1.511l-19.832-7.83 18.411 4.933c.316-3.24-.446-6.494-2.168-9.258-6.029-9.672-20.279-9.2-25.65.853-.308.579-.578 1.177-.809 1.791l-4.937-2.628c.14-.207.287-.402.435-.601.236-.49.49-.988.771-1.475C15.762 4.07 21.242.736 27.021.201z" transform="translate(-247 -96) translate(247 96)"></path>
</svg>


