<?xml version="1.0" encoding="UTF-8" standalone="no"?>
<!DOCTYPE svg PUBLIC "-//W3C//DTD SVG 20010904//EN"
              "http://www.w3.org/TR/2001/REC-SVG-20010904/DTD/svg10.dtd">

<svg xmlns="http://www.w3.org/2000/svg"
     width="352.734mm" height="352.734mm"
     viewBox="0 0 1000 1000">
  <path id="Selection #1"
        fill="#7da66a" stroke="none" stroke-width="1"
        d="M 333.00,633.00
           C 333.00,618.45 335.77,602.02 344.61,590.00
             352.86,578.78 364.81,571.83 377.00,565.75
             377.00,565.75 410.00,552.08 410.00,552.08
             410.00,552.08 423.00,548.33 423.00,548.33
             423.00,548.33 448.00,540.04 448.00,540.04
             468.65,534.06 498.25,532.16 506.25,508.00
             507.92,502.96 507.99,500.19 508.00,495.00
             508.00,495.00 508.00,462.00 508.00,462.00
             507.87,451.37 503.41,441.21 495.00,434.52
             484.73,426.35 481.67,429.91 471.68,417.00
             459.29,400.99 454.17,380.66 451.72,361.00
             450.49,351.19 449.88,351.67 450.00,341.00
             450.19,325.28 454.57,304.29 463.09,291.00
             468.92,281.90 478.02,273.85 488.00,269.53
             491.61,267.97 497.05,267.25 501.00,266.59
             521.45,263.15 543.50,266.04 558.82,281.29
             561.62,284.07 567.68,292.44 569.48,296.00
             575.69,308.29 580.85,333.23 579.91,347.00
             578.35,369.81 571.95,398.80 557.61,417.00
             548.44,428.64 544.72,426.80 536.00,433.53
             526.59,440.79 521.14,451.12 521.23,463.00
             521.23,463.00 521.23,502.00 521.23,502.00
             522.34,506.87 524.36,511.88 527.10,516.00
             535.13,528.06 545.40,529.97 558.00,533.72
             558.00,533.72 579.00,539.42 579.00,539.42
             579.00,539.42 606.00,548.25 606.00,548.25
             606.00,548.25 619.00,551.75 619.00,551.75
             627.70,554.60 651.23,564.43 659.00,568.87
             665.19,572.41 675.01,579.00 679.82,584.09
             685.70,590.32 689.57,599.01 692.32,602.49
             696.63,607.94 706.43,616.73 712.00,620.96
             732.91,636.83 751.59,637.20 775.00,645.00
             775.00,645.00 775.00,643.00 775.00,643.00
             779.55,644.33 787.24,645.41 792.00,645.45
             792.00,645.45 810.00,647.00 810.00,647.00
             832.64,647.04 836.61,648.15 859.00,641.71
             859.00,641.71 873.00,637.13 873.00,637.13
             878.26,634.83 882.23,631.73 887.00,628.69
             892.37,625.27 897.02,623.20 901.91,618.70
             905.98,614.95 917.21,600.02 920.59,595.00
             935.93,572.18 943.96,558.27 944.00,530.00
             944.00,530.00 944.00,480.00 944.00,480.00
             944.00,480.00 943.09,468.00 943.09,468.00
             941.65,447.41 938.46,429.18 934.40,409.00
             931.56,394.90 924.60,370.43 919.58,357.00
             902.95,312.54 880.82,270.52 851.58,233.00
             793.37,158.32 710.32,103.85 619.00,79.15
             593.55,72.27 567.27,67.75 541.00,65.91
             541.00,65.91 529.00,65.00 529.00,65.00
             529.00,65.00 477.00,65.00 477.00,65.00
             477.00,65.00 467.00,65.91 467.00,65.91
             450.81,67.04 434.93,69.21 419.00,72.40
             380.17,80.17 346.50,91.00 311.00,108.75
             311.00,108.75 290.00,119.31 290.00,119.31
             242.31,145.10 200.33,180.67 165.42,222.00
             115.58,281.00 79.54,360.48 68.27,437.00
             68.27,437.00 64.00,480.00 64.00,480.00
             64.00,480.00 64.00,530.00 64.00,530.00
             64.00,530.00 64.91,542.00 64.91,542.00
             66.12,559.26 68.61,576.03 72.00,593.00
             85.23,659.18 114.93,723.76 156.42,777.00
             192.38,823.12 237.89,861.78 289.00,890.14
             289.00,890.14 311.00,901.25 311.00,901.25
             346.50,919.00 380.17,929.83 419.00,937.60
             435.45,940.89 462.54,944.97 479.00,945.00
             479.00,945.00 529.00,945.00 529.00,945.00
             529.00,945.00 541.00,944.09 541.00,944.09
             571.78,941.94 602.49,936.10 632.00,927.02
             642.46,923.81 658.39,918.94 667.99,914.22
             667.99,914.22 676.09,909.37 676.09,909.37
             681.68,906.37 685.24,905.61 691.00,901.40
             691.00,901.40 702.79,891.90 702.79,891.90
             702.79,891.90 708.51,884.00 708.51,884.00
             711.25,880.34 712.47,879.21 714.98,875.00
             721.59,863.93 730.56,839.80 732.56,827.00
             732.56,827.00 733.28,817.00 733.28,817.00
             733.28,817.00 734.91,800.00 734.91,800.00
             734.91,800.00 734.91,769.00 734.91,769.00
             734.91,769.00 732.71,760.00 732.71,760.00
             732.71,760.00 731.66,752.00 731.66,752.00
             729.83,744.14 724.16,731.66 720.87,724.00
             720.87,724.00 717.19,715.00 717.19,715.00
             711.32,703.26 695.65,682.26 685.00,674.59
             685.00,674.59 664.00,663.08 664.00,663.08
             664.00,663.08 641.00,649.21 641.00,649.21
             641.00,649.21 633.00,646.65 633.00,646.65
             617.76,641.57 617.38,641.67 602.00,638.34
             591.05,635.97 578.21,633.02 567.00,633.00
             567.00,633.00 496.00,633.00 496.00,633.00
             496.00,633.00 333.00,633.00 333.00,633.00 Z
           M 615.00,470.00
           C 615.00,470.00 624.54,456.00 624.54,456.00
             630.86,445.76 636.42,435.08 641.13,424.00
             644.14,416.91 645.93,409.42 647.88,402.00
             655.89,371.53 656.36,361.14 656.00,330.00
             655.87,318.84 651.96,300.81 648.72,290.00
             642.35,268.78 633.19,247.49 617.83,231.04
             617.83,231.04 610.00,223.91 610.00,223.91
             610.00,223.91 601.00,215.52 601.00,215.52
             601.00,215.52 589.00,207.80 589.00,207.80
             572.57,197.94 563.75,194.90 545.00,191.39
             539.21,190.30 532.89,189.07 527.00,189.00
             527.00,189.00 504.00,189.00 504.00,189.00
             490.21,189.02 466.57,194.60 454.00,200.31
             454.00,200.31 443.00,206.55 443.00,206.55
             436.72,210.27 433.05,211.91 427.00,216.67
             412.98,227.71 401.87,242.25 393.74,258.00
             393.74,258.00 385.45,274.00 385.45,274.00
             380.23,286.89 374.02,317.12 374.00,331.00
             374.00,331.00 374.00,356.00 374.00,356.00
             374.01,363.68 375.41,370.47 376.58,378.00
             378.56,390.77 381.27,404.87 385.69,417.00
             385.69,417.00 390.14,427.00 390.14,427.00
             396.89,442.18 397.38,444.53 407.09,459.00
             407.09,459.00 415.00,470.00 415.00,470.00
             415.00,470.00 376.00,482.46 376.00,482.46
             376.00,482.46 366.00,486.99 366.00,486.99
             366.00,486.99 345.00,495.32 345.00,495.32
             322.74,505.72 302.82,520.49 286.72,539.00
             283.68,542.49 282.04,543.98 279.44,548.00
             275.07,554.74 274.91,556.45 271.74,563.00
             271.74,563.00 265.09,577.00 265.09,577.00
             256.47,600.92 255.04,631.71 255.00,657.00
             255.00,657.00 254.09,669.00 254.09,669.00
             253.86,673.13 254.62,676.06 255.63,680.00
             260.41,698.59 273.97,708.97 293.00,709.00
             293.00,709.00 563.00,709.00 563.00,709.00
             572.58,709.01 577.00,710.45 586.00,712.34
             586.00,712.34 602.00,716.03 602.00,716.03
             622.04,722.43 643.84,736.33 652.69,756.00
             656.26,763.94 657.01,776.30 657.00,785.00
             657.00,785.00 655.95,797.00 655.95,797.00
             655.95,797.00 655.95,807.00 655.95,807.00
             654.87,814.80 649.77,826.03 644.68,831.99
             636.65,841.37 627.21,843.60 616.00,846.71
             616.00,846.71 599.00,851.48 599.00,851.48
             599.00,851.48 590.00,852.80 590.00,852.80
             590.00,852.80 562.00,858.41 562.00,858.41
             466.77,874.39 371.45,850.67 293.00,794.57
             264.90,774.48 244.26,753.93 222.80,727.00
             186.27,681.15 160.49,622.83 150.92,565.00
             148.85,552.51 146.15,534.43 146.00,522.00
             146.00,522.00 145.34,505.00 145.34,505.00
             145.34,505.00 146.00,496.00 146.00,496.00
             146.24,474.93 148.79,453.68 153.00,433.00
             165.85,370.00 198.28,307.02 242.09,260.00
             291.36,207.11 361.16,168.45 432.00,154.00
             449.22,150.49 475.57,147.03 493.00,147.00
             493.00,147.00 504.00,146.34 504.00,146.34
             504.00,146.34 513.00,147.00 513.00,147.00
             513.00,147.00 521.00,147.00 521.00,147.00
             521.00,147.00 531.00,147.91 531.00,147.91
             550.56,149.28 569.96,152.37 589.00,157.13
             655.88,173.85 718.76,209.39 765.91,260.00
             796.28,292.59 818.20,329.29 835.72,370.00
             849.87,402.88 858.60,442.34 861.09,478.00
             861.09,478.00 862.00,490.00 862.00,490.00
             862.02,501.42 863.00,507.08 861.42,519.00
             861.42,519.00 860.70,528.00 860.70,528.00
             860.16,531.72 855.57,545.86 853.78,549.00
             847.24,560.44 826.08,570.65 813.00,569.91
             813.00,569.91 793.00,568.33 793.00,568.33
             780.30,565.73 762.08,555.65 752.00,547.61
             752.00,547.61 735.96,531.00 735.96,531.00
             730.00,524.80 719.12,515.69 712.00,510.77
             697.94,501.07 680.74,493.96 665.00,487.55
             665.00,487.55 651.00,481.69 651.00,481.69
             651.00,481.69 628.00,474.49 628.00,474.49
             628.00,474.49 615.00,470.00 615.00,470.00 Z" />
</svg>
